<?xml version="1.0" encoding="UTF-8"?>
<!DOCTYPE svg PUBLIC "-//W3C//DTD SVG 1.1//EN" "http://www.w3.org/Graphics/SVG/1.1/DTD/svg11.dtd">
<svg version="1.1" xmlns="http://www.w3.org/2000/svg" xmlns:xlink="http://www.w3.org/1999/xlink" x="0" y="0" width="864" height="1184" viewBox="0, 0, 864, 1184">
  <g id="Layer_1">
    <path d="M802.815,1174.82 C721.723,1174.82 640.936,1174.82 559.689,1174.82 C561.072,1178.74 564.667,1180.3 567.305,1183.91 C561.308,1183.91 555.932,1184.18 550.6,1183.8 C548.159,1183.62 547.031,1180.85 545.947,1178.93 C544.034,1175.55 541.444,1174.87 537.769,1174.88 C489.611,1175 441.452,1174.88 393.295,1175.09 C388.414,1175.12 387.725,1173.57 387.924,1169.29 C388.698,1152.65 389.08,1135.99 389.736,1119.35 C389.882,1115.63 389.366,1112.13 388.319,1108.56 C377.379,1071.34 367.134,1033.95 361.333,995.506 C360.617,990.759 360.09,985.983 359.474,981.211 C357.726,980.666 357.131,982.233 356.199,982.988 C341.851,994.611 327.886,1006.76 311.484,1015.56 C299.817,1021.82 287.588,1026.46 274.353,1027.97 C248.566,1030.9 227.785,1021.53 211.21,1001.99 C202.509,991.728 196.706,979.715 190.568,967.909 C169.326,927.051 148.066,886.207 128.315,844.588 C121.704,830.66 123.743,818.442 132.894,806.933 C135.184,804.053 134.966,802.146 133.396,799.146 C128.715,790.199 122.83,782.787 114.312,776.79 C98.714,765.808 87.013,750.49 73.337,737.356 C51.679,716.557 31.456,694.449 11.209,672.332 C7.007,667.742 3.499,662.842 1.325,656.912 C-1.09,650.324 -0.248,644.404 4.213,639.176 C5.697,637.436 5.671,636.475 4.653,634.563 C-3.055,620.083 1.911,607.51 17.445,602.19 C19.223,601.581 19.67,601.062 19.643,599.189 C19.399,582.718 30.705,573.743 47.266,577.45 C50.57,578.19 52.173,577.994 54.425,574.945 C61.196,565.779 71.001,565.51 81.102,567.564 C88.523,569.073 95.103,572.756 101.624,576.391 C132.947,593.853 162.814,613.417 189.445,638.138 C193.162,631.29 196.518,624.6 200.8,618.454 C206.089,610.863 212.055,604.003 220.485,599.729 C237.295,591.206 251.849,600.653 251.002,619.477 C250.728,625.578 249.352,631.492 246.483,636.74 C238.193,651.906 236.897,668.354 236.411,685.111 C236.025,698.441 238.495,711.716 236.933,725.045 C236.391,729.674 235.924,734.319 235.17,738.915 C234.828,741 235.207,742.732 235.908,744.676 C238.269,751.231 241.4,755.883 249.628,756.157 C255.887,756.365 260.142,760.881 262.883,766.867 C273.478,790.008 285.683,812.345 297.281,834.985 C298.721,837.796 299.733,837.141 301.593,835.596 C315.176,824.319 328.792,813.083 342.477,801.931 C344.464,800.312 345.124,798.225 345.819,796 C352.373,775.016 359.428,754.235 370.67,735.166 C373.977,729.557 377.699,724.255 382.208,719.526 C387.919,713.538 394.548,709.413 403.076,709.103 C406.909,708.965 409.192,707.312 410.988,703.632 C420.403,684.334 422.583,664.251 418.743,643.279 C418.205,640.34 416.455,639.7 414.155,638.945 C384.374,629.174 356.712,615.317 332.147,595.698 C286.049,558.881 259.567,510.681 249.794,452.896 C247.009,436.431 245.853,419.827 245.976,403.131 C245.991,401.141 246.014,399.18 245.367,397.21 C226.396,339.419 227.158,281.175 242.18,222.839 C252.06,184.478 267.314,148.411 292.307,117.197 C312.197,92.356 336.791,74.274 368.591,67.756 C373.341,66.783 375.878,64.634 378.325,60.698 C394.389,34.862 418.357,19.42 446.68,10.208 C473.455,1.499 501.03,-1.142 529.056,0.888 C597.323,5.831 659.733,27.573 715.592,67.186 C765.3,102.436 801.649,147.965 821.269,206.348 C832.719,240.422 833.642,274.909 828.223,309.958 C826.926,318.349 825.457,326.714 824.021,335.084 C823.733,336.765 823.504,338.206 825.003,339.617 C845.418,358.839 848.547,394.717 827.977,422.437 C825.8,425.371 823.649,428.552 820.795,430.702 C816.401,434.01 815.578,438.022 815.629,443.164 C816.021,482.682 819.167,522.037 822.198,561.405 C825.011,597.955 827.739,634.518 824.809,671.205 C823.652,685.696 821.408,699.99 815.753,713.514 C814.784,715.832 815.166,716.466 817.598,717.11 C828.331,719.955 835.915,726.834 841.409,736.295 C851.348,753.41 856.211,772.212 859.655,791.448 C865.191,822.363 865.202,853.205 860.702,884.412 C854.808,925.282 850.813,966.427 844.664,1007.28 C838.791,1046.29 833.026,1085.35 821.728,1123.29 C819.732,1130 817.3,1136.54 814.182,1142.82 C811.385,1148.45 807.67,1153.32 802.217,1156.56 C800.096,1157.82 799.702,1159.07 800.266,1161.39 C801.317,1165.72 801.955,1170.16 802.815,1174.82" fill="#2F201B"/>
    <path d="M812.567,339.142 C836.39,354.768 836.242,383.825 828.16,402.793 C821.567,418.268 810.828,429.745 795.638,437.021 C788.883,441.896 781.096,442.172 773.284,441.689 C768.363,441.385 763.688,439.532 758.77,437.866 C761.18,441.475 760.779,444.875 759.711,448.485 C749.253,483.832 734.027,516.76 710.323,545.318 C690.243,569.509 666.655,589.641 639.493,605.537 C637.932,606.45 636.11,607.064 635.39,608.991 C634.846,628.029 635.266,647.054 635.176,666.077 C635.168,667.803 635.657,669.331 636.692,670.693 C642.026,675.349 641.882,681.05 640.708,687.508 C633.239,728.602 625.033,769.555 617.346,810.607 C616.489,815.188 615.869,819.812 614.833,824.357 C614.395,826.275 614.326,828.366 612.66,829.804 C612.146,832.233 610.83,833.742 608.384,834.696 C602.815,836.868 597.346,839.309 591.906,841.793 C589.867,842.723 588.507,842.717 586.736,840.982 C583.138,837.457 578.825,834.965 573.742,834.081 C573.232,834.383 572.711,834.404 572.177,834.144 C571.116,833.835 569.589,833.692 569.842,832.267 C570.046,831.117 571.495,830.9 572.626,830.695 C577.897,830.294 583.178,830.603 588.454,830.473 C591.035,830.409 593.067,829.753 593.127,826.666 C593.273,819.099 593.964,811.522 592.688,803.982 C592.099,800.149 592.49,796.287 592.317,792.445 C592.057,779.296 592.717,766.141 591.927,752.984 C591.666,748.63 589.857,747.341 585.723,747.381 C577.56,747.461 569.419,747.747 561.268,748.194 C554.98,748.538 554.044,746.918 556.585,741.198 C566.065,719.857 570.808,697.464 570.208,674.174 C569.64,652.131 564.575,630.99 555.155,610.943 C551.043,602.193 544.955,598.043 534.744,598.243 C520.098,598.529 505.471,599.395 490.825,599.462 C484.571,599.49 481.186,603.463 478.4,608.159 C474.025,615.536 471.819,623.787 469.283,631.894 C468.651,633.918 468.586,636.232 466.553,637.592 C465.979,641.477 463,639.964 460.784,640.161 C454.634,641.527 448.976,638.897 443.141,637.874 C438.629,637.084 433.855,636.904 429.946,633.97 C412.278,628.542 394.883,622.41 378.389,613.956 C314.909,581.417 274.117,531.049 258.463,461.04 C254.8,444.655 252.931,428.022 252.865,410.029 C256.793,415.779 259.602,420.992 263.705,425.232 C264.697,425.456 265.422,426.071 265.953,426.889 C266.749,428.115 266.567,427.138 266.591,426.584 C266.933,413.062 266.604,399.574 266.677,386.09 C266.745,373.788 268.239,361.532 269.741,349.32 C274.027,314.48 281.705,280.408 293.481,247.312 C304.827,215.427 319.395,185.221 340.546,158.531 C348.018,149.103 356.28,140.433 366.019,133.278 C367.602,132.115 369.271,130.333 371.333,131.188 C373.548,132.107 373.119,134.6 373.059,136.511 C372.072,168.34 381.184,197.822 394.892,225.93 C411.167,259.302 435.168,288.866 468.088,310.244 C461.268,298.025 456.246,286.048 452.373,273.609 C444.374,247.92 439.338,221.634 436.346,194.909 C435.013,182.996 434.281,171.051 433.507,159.104 C433.354,156.751 432.469,153.155 435.134,152.378 C437.97,151.552 438.691,155.239 439.88,157.266 C454.915,182.906 471.862,207.129 491.432,229.583 C518.619,260.775 549.787,287.361 583.411,311.25 C615.544,334.079 650.044,352.919 684.672,371.549 C687.315,372.971 689.757,374.808 692.525,375.923 C700.027,378.944 703.222,384.469 703.929,392.425 C705.341,408.336 706.404,424.251 707.214,440.207 C707.907,453.858 707.934,467.491 708.056,481.137 C708.071,482.834 708.527,484.422 708.893,486.049 C709.382,492.164 709.003,498.286 709.157,504.398 C708.867,513.026 709.784,521.699 708.345,530.29 C708.134,530.941 709.25,530.482 708.583,530.467 C708.525,530.465 708.503,530.374 708.531,530.194 C710.048,520.629 713.599,511.611 716.116,502.316 C727.107,461.726 735.242,420.592 740.186,378.838 C740.826,373.431 742.157,368.366 744.907,363.713 C754.448,347.574 767.83,336.519 786.662,333.228 C795.977,331.6 804.914,332.874 812.567,339.142" fill="#FBE4DB"/>
    <path d="M263.688,414.937 C260.391,413.865 260.488,410.5 259.542,408.133 C250.737,386.113 245.079,363.324 242.571,339.681 C241.057,325.412 240.361,311.15 240.88,296.859 C242.324,257.127 250.55,218.801 265.828,182.07 C277.751,153.407 293.3,126.985 315.525,104.978 C332.793,87.88 352.539,75.174 377.329,72.151 C379.133,71.931 379.921,70.967 380.63,69.581 C392.671,46.043 412.57,31.682 436.548,22.422 C454.49,15.494 473.23,12.168 492.453,10.922 C549.351,7.234 603.044,19.291 654.525,42.917 C694.535,61.278 729.566,86.496 759.091,119.129 C781.306,143.681 798.397,171.481 809.702,202.707 C810.206,204.098 810.419,205.594 810.768,207.041 C810.166,221.719 807.518,236.135 805.062,250.564 C800.468,277.542 793.805,304.016 785.236,330.008 C784.112,331.953 782.064,332.282 780.169,332.867 C761.263,338.704 748.528,351.507 740.374,369.011 C737.045,376.158 737.35,384.316 736.187,392.033 C730.45,430.098 723.749,467.977 714.907,505.457 C714.792,505.943 714.717,506.444 714.527,506.906 C714.032,508.109 713.784,509.892 712.253,509.832 C710.603,509.767 710.735,507.945 710.527,506.696 C710.335,505.547 710.407,504.37 710.405,503.203 C710.398,499.871 710.3,496.535 710.419,493.207 C711.072,475.051 709.738,456.923 709.141,438.808 C708.572,421.566 707.935,404.225 704.758,387.135 C703.857,382.289 701.646,379.037 697.357,376.633 C679.05,366.373 660.44,356.667 642.201,346.284 C605.772,325.546 571.146,302.224 539.327,274.85 C525.414,262.881 512.89,249.485 499.935,236.535 C496.393,232.994 496.786,231.335 501.178,228.954 C515.71,221.077 529.718,221.761 542.687,232.223 C554.766,241.967 562.854,254.624 567.449,266.589 C566.6,263.403 564.822,257.736 562.836,252.139 C560.763,246.296 557.891,240.841 554.266,235.817 C548.192,227.402 540.248,221.757 530.008,219.387 C519.51,216.957 510.557,220.257 502.618,226.758 C496.496,231.77 495.56,231.783 490.281,225.679 C467.83,199.721 448.945,171.373 433.187,140.913 C433.018,140.588 432.812,140.363 432.035,140.15 C432.582,156.5 431.386,172.718 432.738,188.949 C434.038,204.56 435.686,220.114 438.946,235.449 C443.535,257.042 449.757,278.082 460.526,297.535 C460.687,297.826 460.876,298.109 460.992,298.418 C461.54,299.882 463.236,301.538 461.478,302.859 C459.948,304.01 458.328,302.555 457.002,301.607 C447.075,294.504 438.001,286.42 429.882,277.32 C406.154,250.727 389.941,220.029 380.777,185.668 C375.821,167.09 372.738,148.223 375.342,128.863 C375.487,127.788 375.916,126.575 374.727,125.315 C368.2,128.91 362.331,133.536 356.839,138.553 C339.936,153.994 326.703,172.322 315.712,192.287 C289.137,240.559 274.879,292.663 267.998,347.015 C266.493,358.896 265.974,370.878 264.881,382.788 C263.896,393.526 264.13,404.226 263.688,414.937" fill="#896600"/>
    <path d="M806.787,725.155 C815.918,724.484 823.206,727.83 828.859,735.03 C835.978,744.098 840.439,754.488 843.609,765.396 C854.202,801.855 857.076,838.787 851.931,876.596 C845.893,920.979 841.35,965.565 834.693,1009.87 C831.649,1030.13 828.383,1050.35 824.454,1070.46 C823.9,1073.29 822.503,1075.95 822.581,1078.93 C819.898,1076.12 819.898,1076.03 822.474,1070.51 C817.8,1081.07 812.763,1091.45 806.856,1101.38 C796.627,1118.57 783.595,1132.88 765.197,1141.63 C759.436,1144.37 753.324,1146.14 747.307,1148.17 C736.7,1145.76 726.704,1141.59 716.804,1137.25 C682.804,1122.36 648.928,1107.18 614.877,1092.41 C607.866,1089.37 604.659,1084.37 603.672,1077.27 C602.839,1071.27 603.241,1065.3 603.872,1059.33 C604.008,1058.04 603.896,1056.42 606.128,1057.5 C618.237,1063.31 630.367,1069.08 642.754,1074.99 C637.404,1080.65 631.84,1085 624.895,1087.39 C623.374,1087.91 621.144,1088.21 621.75,1090.45 C622.44,1093 624.577,1092.13 626.316,1091.55 C631.939,1089.68 637.05,1086.73 641.157,1082.56 C667.667,1055.63 679.67,1023.28 676.694,985.539 C676.199,979.263 673.477,973.83 668.617,968.937 C667.425,972.096 669.7,974.3 669.665,977.309 C662.808,974.108 656.274,971.058 649.01,967.668 C655.359,963.264 661.207,960.956 668.314,964.182 C675.729,967.549 683.276,970.627 690.765,973.831 C692.796,973.793 694.731,974.248 696.576,975.055 C706.481,979.385 716.472,983.526 726.318,988.234 C726.428,988.191 726.258,988.173 725.811,987.956 C713.897,982.182 713.768,982.161 715.533,968.964 C719.189,941.626 722.554,914.25 726.508,886.951 C727.762,878.297 729.25,869.669 729.959,861.857 C725.956,891.529 721.198,922.012 716.718,952.535 C716.315,955.285 716.379,958.238 714.508,960.612 C714.159,960.97 713.394,961.361 713.266,961.14 C710.59,956.503 707.252,958.979 704.048,960.235 C698.157,962.544 692.316,964.978 686.38,967.17 C681.436,965.313 676.518,963.398 671.994,960.62 C671.433,958.602 671.944,956.668 672.434,954.726 C684.194,908.084 696.329,861.537 708.15,814.91 C709.004,811.542 710.205,808.732 714.001,807.566 C743.559,798.491 766.184,779.825 785.677,756.452 C793.831,746.674 799.855,735.652 806.787,725.155" fill="#F6EBD9"/>
    <path d="M441.938,1163.99 C441.108,1166.32 439.117,1165.29 437.663,1165.3 C425.681,1165.39 413.696,1165.21 401.718,1165.43 C398.239,1165.5 397.016,1164.63 397.302,1161.07 C397.524,1158.3 397.869,1155.43 396.957,1152.66 C395.587,1149.99 396.305,1147.12 396.345,1144.37 C396.483,1134.91 395.716,1125.43 396.75,1115.98 C397.194,1113.62 396.684,1111.4 396.069,1109.11 C385.604,1070.21 376.017,1031.12 370.247,991.164 C366.869,967.769 369.335,944.701 372.214,921.537 C375.703,893.466 381.55,865.705 383.234,837.4 C383.283,836.583 383.55,835.773 382.645,834.791 C381.261,836.109 381.176,837.945 380.881,839.531 C373.96,876.666 367.118,913.815 360.205,950.951 C359.276,955.94 360.397,961.276 357.654,965.951 C355.856,964.37 354.281,963.982 351.849,965.373 C338.27,973.146 324.346,980.253 309.575,985.541 C297.305,989.934 284.753,992.609 271.658,993.525 C254.029,994.759 236.873,992.388 219.754,988.868 C217.468,988.398 215.185,988.073 212.862,987.958 C206.713,979.407 202.382,969.83 197.55,960.549 C176.799,920.696 155.892,880.919 136.95,840.158 C131.361,828.133 133.756,818.239 144.251,808.731 C146.267,812.781 148.263,816.733 150.205,820.712 C151.578,823.524 152.879,826.371 154.495,829.804 C151.257,830.078 148.577,830.305 144.791,830.625 C147.837,833.411 150.426,834.803 153.649,834.378 C177.413,831.245 200.531,825.95 221.354,813.372 C232.217,806.811 241.397,798.489 247.389,787.088 C249.255,783.538 250.611,779.775 250.967,775.723 C251.099,774.223 251.442,772.469 249.553,771.941 C247.29,771.309 247.035,773.371 246.17,775.575 C244.026,771.706 242.152,768.324 240.031,764.494 C247.247,764.422 251.946,766.032 255.242,772.894 C268.855,801.237 284.583,828.474 299.885,855.975 C301.931,855.418 302.308,853.614 302.295,852.461 C302.24,847.448 305.78,844.92 308.887,842.021 C321.796,829.975 334.667,817.888 347.627,805.898 C349.659,804.018 350.944,801.926 351.802,799.299 C357.753,781.077 364.695,763.257 373.991,746.439 C377.784,739.576 382.064,733.046 387.411,727.249 C391.603,722.705 396.724,719.851 402.595,718.094 C404.638,717.483 404.978,718.19 404.734,719.92 C386.604,751.759 383.975,784.811 397.828,818.752 C401.697,828.229 403.844,837.579 403.303,847.786 C402.343,865.922 403.722,884.061 404.471,902.158 C405.882,936.231 408.743,970.218 412.888,1004.1 C419.288,1056.42 428.741,1108.14 441.895,1159.18 C442.304,1160.77 442.99,1162.38 441.938,1163.99" fill="#F6EBD9"/>
    <path d="M796.683,440.96 C806.493,436.585 806.641,436.586 806.58,447.407 C806.485,464.382 806.784,481.352 807.876,498.281 C809.177,518.464 811.053,538.609 812.604,558.776 C813.406,569.197 814.028,579.632 814.758,590.059 C816.359,612.926 818.248,635.802 817.575,658.737 C817.128,673.974 816.101,689.242 811.531,703.97 C810.653,706.801 809.947,709.761 807.835,712.05 C806.882,712.754 805.964,712.489 805.061,711.944 C791.589,703.811 776.536,701.264 761.253,699.43 C738.724,696.727 716.76,699.938 694.975,705.406 C692.323,706.071 689.582,707.511 686.796,705.695 C685.348,704.041 685.958,702.28 686.556,700.527 C698.403,665.816 707.246,630.251 716.566,594.823 C717.029,593.062 717.828,591.38 718.073,589.566 C708.111,618.884 700.805,648.984 691.777,678.579 C691.437,679.693 691.215,680.858 690.685,681.897 C689.226,684.756 688.01,684.746 686.203,681.978 C675.018,664.838 660.12,651.956 641.561,643.372 C638.952,642.165 637.547,640.549 637.502,637.741 C637.369,629.414 637.445,621.086 637.464,612.759 C637.473,608.974 639.972,607.198 642.794,605.567 C655.524,598.212 667.384,589.617 678.537,580.069 C709.93,553.194 734.112,521.029 749.709,482.602 C754.099,471.786 757.783,460.735 761.059,449.538 C763.205,442.204 763.968,441.659 771.176,443.114 C778.109,444.513 784.751,443.285 791.384,441.472 C793.119,440.998 794.814,440.06 796.683,440.96" fill="#7A5800"/>
    <path d="M72.714,576.066 C78.277,576.205 83.507,577.813 88.432,580.373 C124.052,598.883 157.161,621.019 186.669,648.378 C188.999,650.539 189.431,651.608 186.712,653.932 C176.214,662.904 168.316,674.029 161.38,685.869 C160.509,687.354 158.79,689.148 161.067,690.611 C163.454,692.145 164.192,689.729 165.064,688.257 C172.322,676.008 180.65,664.631 191.676,655.449 C193.193,654.186 193.646,652.399 194.37,650.747 C199.053,640.05 204.251,629.642 211.327,620.284 C215.393,614.906 220.103,610.224 226.4,607.506 C235.129,603.738 241.306,607.774 241.502,617.327 C241.607,622.419 240.556,627.424 238.168,631.806 C227.618,651.16 226.252,672.212 226.931,693.468 C227.448,709.631 228.681,725.738 224.995,741.69 C224.565,743.554 225.545,744.919 226.219,746.386 C231.016,756.827 236.071,767.148 242.013,776.985 C243.522,779.484 243.366,781.319 242.204,783.777 C236.851,795.093 229.05,804.009 218.087,810.288 C200.615,820.294 181.598,825.392 161.987,828.883 C158.923,829.429 158.354,827.67 157.434,825.672 C150.4,810.388 142.619,795.498 133.856,781.13 C132.739,779.299 131.77,777.376 129.803,776.17 C116.756,768.174 105.879,757.626 95.44,746.609 C70.018,719.78 42.967,694.511 18.819,666.46 C15.319,662.394 11.706,658.494 10.3,653.149 C8.518,646.376 12.17,642.36 19.132,643.464 C25.197,644.425 30.43,647.279 35.375,650.774 C47.504,659.345 58.692,669.068 69.659,679.038 C71.857,681.036 73.094,681.096 75.371,679.211 C87.814,668.914 100.381,658.766 112.964,648.639 C120.102,642.894 127.536,637.557 135.557,633.077 C136.92,632.316 139.077,631.758 138.047,629.532 C136.872,626.991 134.758,628.069 133.495,629.262 C127.515,634.907 123.039,632.129 117.576,627.804 C100.351,614.166 82.67,601.106 63.729,589.868 C59.875,587.581 59.441,583.217 62.644,579.797 C65.345,576.913 68.912,576.216 72.714,576.066" fill="#FBE4DB"/>
    <path d="M573.59,838.073 C583.303,841.57 588.681,848.649 591.732,858.379 C601.791,890.461 610.253,922.978 618.609,955.523 C619.687,959.719 621.621,961.874 625.557,963.479 C639.566,969.191 653.351,975.454 667.362,981.16 C671.198,982.723 672.555,984.936 672.842,988.876 C674.555,1012.42 667.956,1033.95 657.29,1054.53 C654.299,1060.3 651.616,1067.84 646.313,1070.13 C641.059,1072.4 635.052,1066.27 629.472,1063.69 C611.364,1055.32 593.533,1046.34 575.351,1038.14 C566.518,1034.16 560.398,1027.92 555.782,1019.72 C552.008,1013.02 549.713,1005.72 546.936,998.617 C543.321,994.47 543.177,989.089 542.235,984.137 C541.348,979.475 538.934,978.03 534.587,977.343 C521.242,975.234 507.775,974.617 494.354,973.425 C492.86,973.293 491.379,973.056 489.917,972.708 C483.639,971.214 479.905,967.171 479.578,961.505 C479.257,955.953 482.188,951.677 488.281,949.569 C498.379,946.076 508.88,944.097 519.278,941.752 C522.358,941.058 525.43,940.261 528.586,939.964 C513.597,941.545 498.812,944.087 484.525,949.109 C480.225,950.621 477.042,949.583 474.746,945.562 C470.795,938.641 469.479,931.226 471.88,923.433 C473.182,919.204 476.349,917.069 480.452,915.853 C489.08,913.296 497.885,911.431 506.544,909.006 C516.16,906.857 525.622,903.973 533.801,902.711 C523.74,903.922 512.323,906.587 500.921,909.335 C492.712,910.778 484.581,912.59 476.792,915.578 C473.29,916.922 471.364,915.808 470.227,912.614 C467.622,905.296 467.503,897.909 470.218,890.625 C471.963,885.941 476.085,884.095 480.574,882.863 C495.514,878.765 510.724,875.894 525.895,872.845 C527.853,872.451 529.831,872.129 531.73,871.503 C533.753,870.837 535.846,870.236 537.101,868.085 C517.563,873.684 497.439,876.183 478.071,881.9 C474.168,883.052 471.534,881.893 470.045,878.214 C467.648,872.29 466.074,866.243 467.219,859.737 C468.752,851.026 473.205,846.166 482.04,844.463 C494.951,841.975 508.023,840.485 521.036,838.645 C530.745,837.272 540.403,835.521 550.181,834.618 C554.216,834.635 558.249,834.583 562.281,834.643 C566.254,835.112 570.211,835.643 573.59,838.073" fill="#FBE4DB"/>
    <path d="M668.508,958.568 C660.141,957.571 652.394,958.922 645.843,964.653 C644.753,965.607 643.764,965.348 642.681,964.759 C642.099,964.442 641.513,964.077 640.882,963.915 C628.832,960.821 623.374,952.867 620.819,940.767 C617.469,924.891 612.12,909.433 607.503,893.833 C606.828,891.551 606.523,889.337 606.669,887.01 C605.392,878.449 607.791,870.222 609.097,861.921 C610.693,851.776 613.615,841.846 615.384,831.788 C617.544,819.512 619.853,807.252 622.026,794.973 C623.151,788.615 624.122,788.298 629.851,791.433 C636.128,794.869 642.309,798.476 648.376,802.252 C653.175,805.239 658.2,806.011 663.665,805.417 C673.747,804.32 683.829,803.169 693.959,802.617 C695.961,802.508 698.656,801.181 699.867,803.631 C700.96,805.844 698.842,807.595 697.635,809.341 C697.261,809.883 696.755,810.331 696.313,811.324 C697.844,811.514 699.158,810.938 700.474,810.729 C706.184,809.821 707.261,810.839 706.056,816.371 C705.028,821.087 703.795,825.758 702.578,830.43 C692.001,871.025 681.718,911.695 671.348,952.343 C670.778,954.577 670.485,956.964 668.508,958.568" fill="#F6EBD9"/>
    <path d="M686.616,704.962 C691.582,706.013 695.982,703.582 700.556,702.511 C718.05,698.416 735.761,696.134 753.683,697.149 C769.735,698.058 785.454,701.162 800.444,707.358 C803.235,708.512 805.177,710.8 807.834,712.05 C806.97,716.196 803.936,719.589 803.702,723.954 C796.194,737.054 788.648,750.159 778.79,761.672 C760.282,783.285 737.899,799.131 710.165,806.77 C709.523,806.946 708.892,807.162 708.244,807.315 C706.628,807.694 704.803,808.392 703.636,806.737 C702.629,805.309 703.716,803.847 704.456,802.574 C709.321,794.2 713.217,785.373 716.605,776.326 C719.385,768.902 722.3,761.512 724.083,754.068 C714.525,762.948 703.097,768.855 690.858,773.5 C676.37,778.998 661.246,781.018 645.944,782.164 C644.012,782.309 641.633,782.708 640.594,780.528 C639.638,778.524 641.422,777.124 642.661,775.847 C660.823,757.133 673.408,735.004 682.721,710.831 C683.552,708.675 683.589,705.755 686.616,704.962" fill="#8A6600"/>
    <path d="M573.59,838.073 C569.972,837.351 566.353,836.629 562.735,835.908 C558.415,835.223 554.094,835.263 549.772,835.885 C527.23,839.193 504.674,842.412 482.153,845.854 C473.591,847.163 469.367,851.887 468.418,860.494 C467.687,867.124 468.93,873.423 472.036,879.333 C472.806,880.799 473.345,881.944 475.753,881.214 C493.297,875.898 511.329,872.654 529.288,869.144 C533.083,868.403 536.113,865.994 540.456,864.494 C539.096,870.348 535.494,872.253 530.902,873.222 C515.6,876.453 500.27,879.576 485.033,883.093 C471.529,886.21 468.872,890.142 469.78,904.052 C469.845,905.047 469.841,906.075 470.103,907.023 C470.811,909.577 470.97,912.722 472.595,914.475 C474.772,916.823 477.05,913.425 479.395,912.919 C486.535,911.377 493.512,909.1 500.766,908.022 C502.767,909.023 505.568,907.639 507.067,910.136 C498.404,912.457 489.776,914.921 481.066,917.049 C475.588,918.388 472.963,921.774 472.322,927.152 C471.59,933.291 472.565,939.142 475.553,944.512 C477.557,948.114 479.977,950.066 484.779,947.675 C494.546,942.811 524.775,937.895 532.628,939.995 C530.028,940.657 527.44,941.365 524.828,941.972 C512.521,944.834 500.026,946.958 488.022,951.008 C481.649,953.159 479.182,959.344 481.909,965.466 C483.221,968.413 485.471,970.186 488.565,970.985 C493.263,972.197 498.062,972.909 502.882,972.873 C515.104,972.784 527.02,975.334 539.073,976.692 C541.007,976.909 542.368,977.141 542.818,979.626 C543.97,985.996 545.536,992.292 546.936,998.617 C544.113,1001.24 544.992,1004.7 544.711,1007.95 C544.337,1012.29 545.949,1016.78 543.761,1020.98 C541.904,1018.89 542.524,1016.31 542.354,1013.88 C542.023,1009.14 543.161,1004.31 541.504,999.659 C539.974,995.607 538.97,991.4 538.181,987.156 C537.542,983.715 535.662,981.956 532.189,981.614 C524.916,980.897 517.696,979.736 510.453,978.781 C506.761,978.294 504.862,979.697 505.326,983.351 C506.627,993.612 506.072,1003.92 506.298,1014.2 C506.381,1017.94 508.268,1019.52 511.953,1019.5 C519.926,1019.47 527.9,1019.47 535.873,1019.51 C538.024,1019.52 540.2,1019.32 542.303,1020.02 C542.823,1020.29 543.305,1020.61 543.751,1020.99 C544.334,1023.02 545.216,1023.3 545.643,1021.04 C546.077,1018.75 545.979,1016.36 546.134,1014.01 C546.135,1014 546.424,1013.95 546.548,1014 C546.689,1014.06 546.796,1014.2 546.918,1014.31 C548.872,1018.18 550.734,1022.05 546.612,1025.77 C544.503,1026.37 543.469,1027.5 543.331,1029.96 C542.213,1049.82 540.82,1069.66 539.2,1089.48 C539.037,1091.47 540.105,1094.38 536.617,1094.94 C535.358,1094.94 534.1,1094.94 531.759,1094.94 C534.039,1093.74 536.373,1093.74 535.639,1091.3 C535.279,1090.1 534.337,1090.9 533.633,1090.94 C531.203,1087.08 532.192,1082.84 532.535,1078.79 C533.868,1063.04 534.469,1047.23 536.041,1031.5 C536.375,1028.15 535.091,1026.47 531.614,1026.51 C526.788,1026.57 521.974,1026.39 517.152,1027.07 C513.81,1027.54 512.696,1028.9 513.049,1032.32 C514.539,1046.73 516.196,1061.11 517.76,1075.51 C518.049,1078.17 518.309,1080.81 518.21,1083.47 C517.997,1085.91 517.893,1088.37 517.785,1090.82 C517.735,1091.94 518.83,1090.58 519.414,1090.82 C523.896,1090.68 528.455,1089.4 532.722,1091.84 C530.088,1093.13 527.462,1094.18 524.386,1093.37 C521.941,1092.72 520.177,1093.63 519.623,1096.29 C514.785,1097.47 513.154,1096.68 512.35,1091.84 C510.491,1080.67 509.71,1069.35 508.359,1058.11 C507.425,1050.34 506.609,1042.56 505.766,1034.78 C505.385,1031.26 505.049,1028.01 501.422,1025.89 C499.318,1024.65 499.273,1021.83 499.371,1019.48 C499.853,1007.8 497.828,996.194 498.37,984.532 C498.575,980.13 496.84,978.029 492.547,977.714 C491.229,977.617 489.927,977.236 488.63,976.929 C479.354,974.731 474.754,968.809 475.496,959.203 C475.789,955.407 474.571,952.834 472.444,949.754 C467.478,942.563 464.1,934.624 466.474,925.467 C468.143,921.987 467.937,918.734 466.555,914.992 C463.248,906.04 462.889,896.817 466.598,887.824 C467.66,885.248 467.444,883.198 466.378,880.756 C462.999,873.02 461.19,865.017 463.28,856.551 C463.678,854.937 464.204,853.371 464.936,851.872 C468.082,845.424 468.078,845.422 461.868,841.602 C457.986,841.961 459.51,837.25 456.933,836.385 C443.431,836.199 443.325,836.084 443.311,822.565 C443.306,818.404 443.372,814.242 443.298,809.801 C434.065,810.837 425.268,808.141 416.305,807.012 C412.182,806.493 410.469,807.825 410.049,811.841 C409.254,819.458 408.23,827.043 408.118,834.727 C408.09,836.609 409.121,839.6 405.463,839.824 C405.106,837.757 405.377,835.671 405.091,833.595 C408.122,849.774 403.798,865.95 405.306,880.176 C405.46,874.136 405.001,866.137 405.507,858.143 C408.696,858.058 407.989,860.67 408.137,862.326 C408.478,866.135 408.278,869.978 408.265,873.807 C408.18,899.276 410.149,924.638 412.034,950.013 C414.6,984.562 418.78,1018.91 424.266,1053.1 C429.809,1087.64 436.884,1121.87 445.585,1155.75 C447.571,1163.49 447.718,1163.39 455.825,1163.49 C459.981,1163.54 464.142,1163.1 468.295,1163.59 C468.989,1163.87 469.147,1164.33 468.773,1164.98 C467.824,1167.04 465.988,1166.98 464.133,1166.97 C459.515,1166.95 454.896,1166.91 450.278,1166.98 C447.094,1167.03 444.764,1164.85 441.938,1163.99 C435.323,1141.28 430.361,1118.18 425.805,1094.99 C409.122,1010.08 401.384,924.323 401.965,837.807 C401.987,834.576 401.414,831.667 400.103,828.68 C391.713,809.566 386.227,789.826 387.712,768.65 C388.929,751.315 395.379,735.716 403.489,720.66 C403.685,720.295 404.309,720.162 404.734,719.92 C401.825,726.783 399.051,733.708 395.928,740.472 C394.96,742.569 395.291,743.827 396.837,745.147 C398.148,746.652 397.572,748.307 397.092,749.87 C390.625,770.919 392.94,791.579 399.764,812.054 C400.679,814.798 401.857,817.462 401.966,820.346 C402.597,806.405 405.626,793.047 410.629,780.094 C419.831,757.629 433.913,738.387 449.933,720.4 C453.468,716.432 456.959,712.416 460.411,708.37 C462.763,705.613 463.438,702.812 462.817,699.196 C460.102,683.382 459.898,667.508 462.4,651.629 C462.682,649.84 462.636,647.895 464.732,647.029 C466.37,646.964 467.429,646.213 467.767,644.54 C467.858,644.091 468.143,643.67 468.606,644.235 C468.786,644.454 468.758,644.842 468.825,645.153 C470.565,646.996 469.963,649.183 469.717,651.309 C469.01,657.422 468.032,663.498 468.187,669.701 C468.269,673.008 469.4,674.66 472.866,674.556 C484.17,674.217 495.466,674.832 506.795,673.885 C519.063,672.859 531.424,673.544 543.742,673.617 C549.594,673.651 555.361,672.896 561.17,672.574 C564.155,672.408 565.219,670.947 565.274,668.141 C565.342,664.613 564.621,661.182 564.219,657.716 C562.339,641.509 557.459,626.196 550.397,611.52 C547.416,605.324 542.938,602.116 535.816,602.452 C521.361,603.136 506.901,603.881 492.416,603.55 C487.443,603.437 484.467,606.391 482.253,610.42 C477.97,618.216 475.345,626.63 472.96,635.142 C472.35,637.319 472.309,639.869 469.772,641.03 C468.977,639.624 466.522,639.772 466.554,637.592 C468.601,626.539 472.231,615.981 477.735,606.23 C480.637,601.087 484.957,597.688 491.822,597.746 C507.138,597.875 522.474,597.54 537.774,596.813 C545.743,596.435 550.836,600.044 554.238,606.47 C567.931,632.328 573.072,660.021 571.119,689.073 C569.778,709.041 564.534,728.056 556.086,746.039 C566.623,746.039 577.031,746.277 587.419,745.928 C591.904,745.778 593.427,746.807 593.36,751.571 C593.168,765.051 593.55,778.54 593.705,792.026 C592.585,802.1 593.642,812.168 593.182,822.237 C593.621,816.061 592.514,809.877 593.921,803.711 C594.197,811.969 594.443,820.229 594.767,828.485 C594.871,831.164 593.507,831.906 591.097,831.885 C584.643,831.831 578.189,831.89 571.735,831.903 C562.642,831.266 553.496,831.032 544.452,831.728 C538.742,832.167 532.934,832.635 527.267,833.774 C518.912,834.59 510.459,834.332 502.178,836.096 C513.154,835.334 524.046,833.621 535.041,833.011 C547.04,833.961 559.085,831.224 571.064,833.502 C571.707,833.624 572.376,833.594 572.971,833.927 C573.266,833.788 573.523,833.84 573.742,834.081 C574.224,834.909 568.984,835.149 573.511,836.446 C574.382,836.696 576.284,837.407 573.59,838.073" fill="#2B1B18"/>
    <path d="M467.842,925.184 C465.362,932.668 469.583,946.769 476.035,951.487 C477.738,952.732 477.915,953.531 477.42,955.453 C474.506,966.776 479.406,973.958 491.267,976.071 C499.555,977.549 499.514,977.55 499.771,985.774 C500.14,997.594 500.603,1009.41 500.965,1021.23 C501.041,1023.73 501.056,1025.94 504.561,1025.86 C507.604,1025.8 506.544,1028.44 506.718,1029.97 C509.015,1050.16 511.397,1070.35 513.301,1090.58 C513.733,1095.17 515.277,1096.85 519.623,1096.29 C520.965,1120.11 525.735,1143.08 536.975,1164.89 C519.896,1164.89 503.327,1164.89 486.757,1164.89 C485.156,1164.43 484.561,1163.47 484.303,1161.71 C480.492,1135.69 476.26,1109.73 473.806,1083.53 C472.41,1068.63 471.119,1053.72 470.155,1038.77 C468.429,1012.04 467.216,985.309 466.997,958.51 C466.933,950.617 466.66,942.543 464.738,934.702 C463.857,931.111 464.042,927.407 465.501,923.902 C465.866,923.024 466.44,921.697 467.465,922.136 C468.759,922.691 468.297,924.076 467.842,925.184" fill="#FEFEFE"/>
    <path d="M263.688,414.937 C263.425,412.632 262.928,410.327 262.933,408.022 C263.039,354.079 271.072,301.403 288.662,250.328 C300.052,217.257 314.876,185.919 336.698,158.269 C347.504,144.576 359.879,132.585 374.866,123.469 C375.554,123.05 376.125,122.339 377.08,122.643 C367.487,198.061 419.752,277.813 461.516,302.609 C433.444,250.341 428.998,194.13 432.159,136.379 C434.904,141.399 437.666,146.409 440.392,151.439 C454.961,178.326 472.588,203.076 492.474,226.268 C495.127,229.362 496.809,230.558 500.494,226.913 C513.756,213.79 534.613,214.299 548.691,227.455 C559.103,237.185 564.155,249.719 567.682,263.076 C568.465,266.043 568.951,269.088 569.214,272.233 C565.653,264.493 561.826,256.945 556.997,249.989 C549.984,239.888 541.987,230.857 529.881,226.589 C519.022,222.76 509.29,226.04 499.79,231.123 C497.546,232.324 498.619,233.342 499.778,234.497 C510.639,245.315 521.09,256.583 532.429,266.874 C555.384,287.706 580.172,306.23 606.246,323.007 C630.62,338.691 656.003,352.627 681.476,366.408 C687.478,369.654 693.323,373.198 699.403,376.286 C703.228,378.228 704.931,381.204 705.745,385.208 C708.17,397.136 708.992,409.25 709.597,421.34 C711.027,449.931 712.105,478.542 711.736,507.183 C711.728,507.782 711.827,508.382 712.664,509.108 C714.666,500.45 716.811,491.823 718.644,483.13 C724.812,453.885 729.824,424.429 734.496,394.914 C735.404,389.177 736.093,383.402 736.765,377.631 C737.998,367.047 743.703,358.73 750.311,350.917 C759.432,340.134 771.057,333.383 784.739,330.084 C792.992,326.218 809.042,329.038 813.717,335.176 C811.755,337.139 810.362,333.685 808.504,334.583 C808.669,337.206 813.345,335.721 812.567,339.142 C785.591,324.955 756.784,343.101 744.826,366.62 C740.518,375.093 741.127,384.456 739.847,393.437 C733.393,438.699 723.784,483.245 710.395,526.967 C709.825,528.828 709.103,530.643 707.584,532.435 C707.584,527.962 707.56,523.489 707.591,519.016 C707.623,514.356 707.707,509.696 707.769,505.036 C708.845,496.949 708.031,488.824 708.225,480.719 C708.353,475.346 708.267,469.967 707.983,464.601 C707.535,463.97 706.903,464.875 707.472,464.528 C707.71,464.382 707.888,464.462 707.902,464.772 C708.214,471.639 708.871,478.513 707.561,485.353 C706.942,468.23 706.425,451.102 705.672,433.984 C705.006,418.845 704.154,403.718 702.015,388.683 C701.34,383.943 699.227,381.062 694.999,378.738 C666.568,363.103 637.763,348.128 610.299,330.773 C568.567,304.402 530.104,274.073 496.729,237.533 C473.762,212.389 453.907,185.003 437.374,155.22 C436.828,154.237 436.238,153.278 435.227,152.397 C435.176,180.176 438.391,207.596 443.874,234.752 C449.351,261.88 456.72,288.409 470.5,312.828 C438.709,293.773 415.264,266.954 397.972,234.609 C380.784,202.459 370.051,168.515 371.713,130.803 C363.936,136.06 357.387,141.832 351.376,148.217 C327.329,173.762 311.364,204.185 298.965,236.578 C275.93,296.756 265.79,359.169 267.708,423.56 C267.753,425.053 267.682,426.55 267.665,428.046 C265.168,427.433 266.266,425.585 266.275,424.079 C266.34,412.366 266.296,400.652 266.305,388.939 C266.306,388.262 266.186,387.634 265.803,387.068 C263.749,389.747 264.946,392.83 264.853,395.707 C264.649,402.004 264.779,408.311 264.76,414.614 C264.759,414.744 264.625,414.974 264.534,414.984 C264.257,415.014 263.97,414.959 263.688,414.937" fill="#2C1D1B"/>
    <path d="M469.772,641.03 C472.836,630.511 475.467,619.855 480.644,610.06 C483.452,604.747 487.162,601.896 493.622,601.926 C508.59,601.995 523.565,601.519 538.528,601.01 C543.91,600.826 547.606,603.417 549.878,607.61 C558.52,623.556 563.819,640.61 565.84,658.669 C566.283,662.631 566.81,666.562 566.798,670.573 C566.79,673.194 565.802,674.054 563.289,674.119 C556.645,674.291 550.009,674.797 543.365,674.919 C519.566,675.358 495.763,675.61 471.966,676.145 C467.899,676.237 466.569,675.205 466.556,670.938 C466.527,662.244 468.265,653.759 468.825,645.152 C470.021,643.981 469.715,642.464 469.772,641.03" fill="#486172"/>
    <path d="M686.616,704.962 C680.379,719.802 674.37,734.733 665.666,748.405 C659.393,758.259 652.381,767.485 644.357,775.964 C643.158,777.231 641.383,778.115 641.074,780.136 C657.634,781.961 700.697,775.963 726.725,750.037 C720.826,770.008 714.176,788.789 703.44,806.904 C711.845,805.562 719.03,802.938 726.049,799.873 C757.799,786.012 780.257,762.163 797.782,733.011 C799.637,729.925 800.714,726.306 803.702,723.955 C800.934,732.073 795.635,738.752 791.19,745.915 C790.147,747.595 788.978,749.196 787.59,751.243 C789.578,751.212 790.079,750.008 790.737,749.009 C795.484,741.801 800.499,734.762 804.309,726.971 C804.737,726.094 804.696,723.995 806.787,725.155 C786.382,764.556 757.633,794.772 714.29,808.724 C711.106,809.749 710.368,811.6 709.685,814.273 C697.464,862.124 685.193,909.962 672.922,957.799 C672.676,958.756 672.306,959.68 671.994,960.62 C670.274,960.885 670.449,957.929 668.508,958.568 C674.408,935.176 680.276,911.776 686.215,888.394 C692.442,863.876 698.744,839.376 704.986,814.861 C705.256,813.802 706.11,812.764 705.254,811.371 C701.306,812.044 697.289,812.729 692.574,813.533 C695.331,810.015 697.637,807.072 700.645,803.233 C688.818,804.335 677.985,804.922 667.293,806.477 C659.165,807.659 652.079,806.698 645.174,801.955 C638.761,797.549 631.743,794.023 624.38,789.756 C622.57,799.251 620.852,808.477 619.047,817.686 C616.007,833.193 612.462,848.619 610.035,864.22 C608.858,871.791 607.231,879.335 606.669,887.01 C605.141,887.921 606.337,889.863 604.594,891.607 C605.365,885.81 606.121,880.68 604.573,875.642 C603.226,874.088 603.439,872.256 603.715,870.451 C605.114,861.295 606.958,852.215 608.47,843.078 C608.742,841.43 609.211,839.828 610.917,839.007 C614.347,837.763 614.201,834.575 614.599,831.821 C614.678,831.268 611.873,831.965 612.66,829.804 C616.512,808.894 620.315,787.975 624.228,767.077 C628.05,746.661 631.999,726.268 635.861,705.859 C637.041,699.625 637.815,693.296 639.33,687.147 C640.757,681.355 641.028,676.152 635.952,671.961 C635.452,669.895 634.696,667.932 634.71,665.706 C634.828,646.162 634.642,626.617 634.831,607.073 C647.731,598.904 660.647,590.784 672.544,581.13 C716.731,545.277 744.572,499.073 759.466,444.589 C760.01,442.602 760.255,441.12 757.92,440.202 C756.622,439.691 755.619,438.694 756.515,437.095 C757.357,435.592 758.671,435.709 759.962,436.389 C771.752,442.6 783.666,441.304 795.638,437.021 C796.031,437.314 797.96,436.95 796.388,438.093 C794.431,439.517 796.065,440.076 796.684,440.96 C787.398,444.724 777.836,446.469 767.993,443.84 C764.644,442.945 764.003,444.401 763.258,446.923 C758.922,461.594 754.119,476.089 747.9,490.109 C738.532,511.229 726.575,530.735 711.76,548.422 C691.96,572.059 668.986,592.039 642.138,607.389 C639.569,608.858 638.469,610.696 638.565,613.791 C638.802,621.446 638.733,629.114 638.599,636.774 C638.546,639.816 639.144,641.474 642.626,642.329 C649.901,644.117 655.416,649.203 661.183,653.685 C669.61,660.233 677.421,667.407 684.132,675.761 C685.999,678.086 686.889,680.879 688.722,684.164 C699.175,650.915 706.636,617.574 718.545,585.625 C718.941,585.729 719.337,585.833 719.733,585.937 C717.369,595.809 715.265,605.752 712.592,615.539 C704.586,644.848 697.36,674.392 686.938,702.995 C686.714,703.608 686.718,704.304 686.616,704.962" fill="#2B1D1B"/>
    <path d="M536.617,1094.94 C537.989,1094.02 537.545,1092.55 537.632,1091.3 C539.071,1070.78 540.535,1050.26 541.815,1029.72 C542.021,1026.43 542.584,1024.24 546.49,1024.85 C557.88,1042.15 573.754,1056.1 583.363,1074.96 C583.928,1066.82 584.712,1059.11 584.697,1051.35 C584.695,1050.18 584.851,1048.51 586.899,1048.79 L586.889,1048.79 C589.183,1052.57 587.686,1056.77 588.225,1060.75 C588.327,1064.16 588.404,1067.57 587.849,1070.95 C586.454,1077.61 587.364,1084.34 587.263,1091.04 C587.337,1102.18 587.34,1113.31 587.23,1124.45 C587.196,1127.9 586.352,1131.21 585.533,1134.53 C585.349,1143.33 585.033,1152.13 585.052,1160.93 C585.059,1163.97 584.58,1165.29 581.07,1165.18 C572.43,1164.9 563.773,1164.99 555.128,1165.15 C552.605,1165.2 551.218,1164.3 550.037,1162.18 C539.065,1142.47 534.159,1121.12 532.299,1098.84 C531.952,1094.69 535.743,1096.8 536.617,1094.94" fill="#FEFEFE"/>
    <path d="M411.782,780.017 C407.087,793.811 403.739,807.895 402.541,822.549 C395.425,804.699 390.134,786.651 392.377,767.049 C393.233,759.565 395.193,752.412 396.836,745.146 C402.707,730.682 410.291,717.067 417.61,703.323 C427.353,685.03 431.594,665.792 427.857,645.143 C427.284,641.973 428.155,641.17 431.498,641.86 C437.493,643.099 443.531,644.441 449.744,644.081 C450.368,643.478 450.978,643.415 451.569,644.127 C454.847,645.769 458.386,644.549 461.767,645.053 C464.422,650.294 461.881,655.512 461.251,660.568 C459.327,676.014 454.181,690.603 447.866,704.798 C440.537,721.271 431.254,736.608 421.087,751.445 C415.185,760.057 412.787,769.81 411.782,780.017" fill="#8A6600"/>
    <path d="M620.743,1162.96 C625.418,1144.14 630.092,1125.31 634.828,1106.25 C669.801,1121.32 703.82,1137.18 738.737,1150.95 C739.968,1153.89 740.012,1157.08 740.585,1160.16 C740.923,1161.97 740.91,1163.85 738.841,1164.87 C737.068,1165.49 735.228,1165.37 733.408,1165.37 C698.374,1165.39 663.34,1165.4 628.306,1165.34 C625.617,1165.34 622.496,1166.17 620.743,1162.96" fill="#F6EBD9"/>
    <path d="M467.842,925.184 C467.753,924.532 467.663,923.881 467.491,922.619 C465.583,926.488 465.228,930.136 465.953,933.656 C468.481,945.914 468.929,958.312 468.731,970.742 C468.414,990.675 470.127,1010.53 470.922,1030.42 C471.588,1047.09 473.015,1063.76 474.882,1080.35 C477.78,1106.1 480.576,1131.89 485.735,1157.32 C486.247,1159.85 485.125,1162.55 486.757,1164.89 C484.1,1164.96 481.392,1164.73 478.796,1165.17 C474.274,1165.93 472.006,1164.3 471.886,1159.71 C468.624,1154.33 469.232,1148.14 468.544,1142.31 C465.194,1113.91 462.486,1085.43 460.427,1056.92 C459.076,1038.2 457.942,1019.45 456.994,1000.69 C455.467,970.442 455.111,940.198 455.201,909.932 C455.209,907.101 455.305,904.278 455.62,901.466 C457.033,896.486 456.142,891.392 456.338,886.352 C456.235,884.571 456.402,882.811 456.727,881.062 C457.788,877.662 457.343,874.179 457.268,870.715 C457.101,862.278 458.286,853.954 459.363,845.622 C459.642,843.461 460.247,841.44 462.204,840.133 C462.887,840.581 463.553,841.057 464.256,841.471 C468.721,844.102 469.818,846.416 466.685,851.87 C461.149,861.505 463.405,871.853 468.234,881.419 C469.431,883.79 469.323,885.19 468.191,887.568 C463.892,896.6 464.188,906.07 467.951,915.091 C469.525,918.865 469.809,921.83 467.842,925.184" fill="#F0F5F8"/>
    <path d="M212.862,987.958 C214.76,985.612 217.227,986.828 219.228,987.342 C232.572,990.774 246.253,992.476 259.877,992.722 C276.759,993.026 293.393,990.229 309.429,984.235 C325.964,978.054 341.33,969.536 356.743,961.446 C358.944,962.816 355.77,964.758 357.654,965.951 C355.182,970.747 351.519,974.628 347.748,978.357 C326.737,999.136 302.345,1013.57 272.603,1017.58 C246.196,1021.13 226.044,1011.04 212.862,987.958" fill="#E9DFCE"/>
    <path d="M591.683,1051.97 C597.598,1051.64 600.215,1054.09 599.492,1059.4 C598.568,1066.2 598.394,1072.98 599.692,1079.75 C601.166,1087.44 604.905,1093.21 612.566,1096.16 C617.826,1098.19 622.838,1100.86 628.041,1103.05 C630.28,1103.99 630.847,1104.96 630.172,1107.51 C625.407,1125.5 620.8,1143.53 616.336,1161.6 C615.636,1164.44 614.499,1165.3 611.643,1165.18 C605.666,1164.95 599.663,1164.9 593.69,1165.19 C590.239,1165.36 589.197,1164.43 589.277,1160.86 C589.585,1147.24 589.548,1133.61 589.64,1119.98 C586.929,1115.5 587.983,1110.53 588.416,1105.88 C589.051,1099.07 589.346,1092.27 589.096,1085.47 C588.74,1075.8 590.483,1066.24 590.23,1056.59 C590.187,1054.94 590.34,1053.24 591.683,1051.97" fill="#F6EBD9"/>
    <path d="M813.717,335.176 C804.784,329.344 794.743,329.817 784.739,330.084 C784.694,323.521 787.793,317.742 789.505,311.64 C795.842,289.047 801.385,266.298 804.771,243.055 C806.385,231.973 808.067,220.9 809.767,209.83 C809.914,208.872 810.425,207.97 810.768,207.042 C816.006,219.313 818.64,232.292 820.619,245.367 C822.055,254.85 822.949,264.479 822.587,274.086 C821.849,293.613 819.895,313.039 816.386,332.278 C816.182,333.397 816.686,336.177 813.717,335.176" fill="#7A5800"/>
    <path d="M23.957,610.781 C30.881,610.976 36.252,612.766 41.324,615.351 C61.324,625.545 78.816,639.429 96.5,653.03 C98.183,654.325 98.08,655.081 96.487,656.356 C89.202,662.179 81.898,667.986 74.82,674.054 C72.419,676.113 71.367,674.498 69.917,673.213 C60.562,664.932 51.081,656.8 41.023,649.372 C36.057,645.704 30.86,642.496 25.016,640.288 C20.766,638.683 17.292,635.686 14.47,632.133 C10.945,627.695 9.249,622.674 11.975,617.268 C14.64,611.983 19.674,610.841 23.957,610.781" fill="#FBE4DB"/>
    <path d="M121.7,636.296 C115.64,641.035 109.734,645.372 104.187,650.128 C101.855,652.128 100.749,650.755 99.199,649.537 C85.849,639.04 72.331,628.774 57.952,619.701 C50.769,615.169 43.393,611.053 35.355,608.111 C30.247,606.241 29.317,601.309 28.972,596.655 C28.646,592.263 30.927,588.968 35.062,587.266 C37.718,586.172 40.524,585.938 43.405,586.402 C47.896,587.125 52.112,588.619 56.089,590.775 C79.604,603.527 100.322,620.276 121.7,636.296" fill="#FBE4DB"/>
    <path d="M747.307,1148.17 C748.508,1147.56 748.769,1146.21 750.531,1145.71 C775.587,1138.73 793.09,1122.39 806.017,1100.42 C811.081,1091.82 815.17,1082.73 819.768,1073.89 C820.504,1072.47 821.319,1071.1 822.366,1069.23 C823.182,1072.9 820.135,1075.97 822.581,1078.93 C819.253,1097.29 814.783,1115.33 808.347,1132.9 C803.203,1146.93 793.204,1153.38 778.618,1153.42 C767.886,1153.46 757.438,1151.75 747.307,1148.17" fill="#E9DFCE"/>
    <path d="M532.722,1091.84 C527.757,1091.84 522.792,1091.83 517.826,1091.82 C516.413,1089.66 518.08,1087.05 516.806,1084.87 C516.048,1069.82 513.906,1054.9 512.169,1039.95 C511.73,1036.17 512.211,1032.31 510.963,1028.59 C510.475,1027.14 511.19,1026.14 512.948,1025.9 C520.213,1024.92 527.513,1025.08 534.812,1025 C538.378,1024.96 537.818,1027.41 537.693,1029.46 C537.064,1039.71 536.543,1049.97 535.586,1060.19 C534.628,1070.43 533.826,1080.66 533.634,1090.94 C533.33,1091.24 533.026,1091.54 532.722,1091.84" fill="#5B5662"/>
    <path d="M456.827,901.574 C456.827,915.538 456.717,929.504 456.847,943.467 C457.439,1007.33 462.392,1070.92 469.22,1134.38 C470.128,1142.82 470.998,1151.27 471.886,1159.71 C471.789,1161.13 471.691,1162.55 471.588,1164.03 C470.069,1163.37 471.34,1161.81 470.284,1161 C469.112,1162.04 470.437,1164.13 468.772,1164.98 C468.686,1164.51 468.599,1164.04 468.512,1163.57 C465.999,1162.23 466.234,1159.65 465.927,1157.43 C463.529,1140.12 461.985,1122.7 460.205,1105.31 C457.884,1082.64 455.964,1059.92 454.538,1037.17 C453.632,1022.73 452.807,1008.28 452.128,993.823 C450.722,963.865 451.417,933.898 451.171,903.935 C451.12,897.748 451.512,891.624 452.587,885.54 C453.805,881.736 453.335,877.826 453.278,873.943 C453.07,862.444 454.874,851.125 456.35,839.778 C456.589,837.947 456.971,836.155 458.682,835.032 C460.077,835.864 459.815,837.264 459.747,838.501 C459.633,840.578 460.824,840.439 462.204,840.133 C459.667,850.273 459.425,860.675 458.67,871.018 C457.569,874.47 458.931,878.12 457.824,881.571 C457.78,883.052 457.736,884.532 457.693,886.012 C456.452,891.147 458.041,896.438 456.827,901.574" fill="#271714"/>
    <path d="M411.782,780.017 C410.6,778.041 410.52,775.903 411.009,773.746 C413.146,764.314 416.31,755.397 422.045,747.368 C435.209,728.939 445.864,709.085 453.288,687.674 C458.058,673.92 461.363,659.741 461.767,645.053 C463.283,644.921 464.686,644.957 464.732,647.029 C462.426,658.427 461.28,669.877 462.344,681.537 C462.991,688.626 463.391,695.716 464.696,702.746 C465.484,706.994 461.508,709.17 459.252,711.735 C448.511,723.947 437.909,736.232 428.556,749.58 C421.854,759.147 416.995,769.665 411.782,780.017" fill="#7A5800"/>
    <path d="M586.899,1048.79 C585.841,1049.59 585.674,1050.74 585.765,1051.92 C586.404,1060.22 584.656,1068.41 584.665,1076.9 C583.149,1076.72 582.671,1075.43 582.068,1074.48 C571.783,1058.44 560.49,1043.15 546.812,1029.84 C544.39,1027.48 547.865,1026.34 546.49,1024.85 C548.078,1021.39 547.448,1017.85 546.918,1014.31 C547.856,1014.07 548.368,1014.37 548.752,1015.34 C554.418,1029.7 564.411,1039.58 579.058,1044.75 C581.805,1045.72 584.292,1047.43 586.899,1048.79" fill="#F0F5F8"/>
    <path d="M713.714,960.985 C717.362,937.64 721.021,914.298 724.655,890.952 C726.37,879.934 728.019,868.906 729.754,857.892 C729.914,856.874 729.52,855.469 731.708,854.808 C731.004,860.583 730.374,866.074 729.659,871.553 C725.11,906.379 720.601,941.21 715.896,976.014 C715.396,979.715 716.023,981.733 719.66,983.253 C723.584,984.893 727.37,987.059 730.024,991.079 C716.938,985.33 703.852,979.58 690.765,973.831 C692.188,973.33 692.623,972.074 693.061,970.822 C696.89,969.69 699.698,972.219 702.754,973.645 C711.024,977.503 709.794,977.977 711.436,969.002 C711.936,966.267 711.839,963.338 713.714,960.985" fill="#201410"/>
    <path d="M591.683,1051.97 C591.002,1074.64 590.321,1097.31 589.64,1119.98 C588.159,1121.53 588.788,1123.46 588.779,1125.22 C588.717,1136.88 588.762,1148.53 588.7,1160.19 C588.692,1161.74 589.222,1163.39 587.759,1165.62 C587.759,1153.61 587.759,1142.36 587.759,1131.12 C587.43,1131.11 587.101,1131.11 586.772,1131.1 C586.772,1142.36 586.772,1153.62 586.772,1164.87 C586.359,1164.87 585.946,1164.86 585.533,1164.86 C585.533,1154.75 585.533,1144.64 585.533,1134.53 C585.693,1121.6 585.86,1108.67 586.005,1095.74 C586.022,1094.26 585.914,1092.77 585.864,1091.29 C586.997,1084.55 585.567,1077.72 586.618,1070.98 C586.697,1067.74 586.776,1064.5 586.855,1061.26 C588.043,1057.24 586.439,1053.02 587.741,1049.01 C590.467,1048.12 589.6,1052.01 591.683,1051.97" fill="#281A15"/>
    <path d="M610.917,839.007 C608.498,847.999 607.433,857.249 605.741,866.379 C605.176,869.434 604.953,872.553 604.573,875.642 C604.188,876.681 603.804,877.72 603.259,879.192 C599.312,868.217 596.802,857.236 591.792,847.166 C591.356,846.289 591.298,845.548 592.242,845.136 C598.152,842.557 604.064,839.978 610.03,837.535 C610.694,837.263 610.751,838.414 610.917,839.007" fill="#FDFDFD"/>
    <path d="M739.752,1163.94 C740.185,1159.55 736.689,1155.46 738.737,1150.95 C751.266,1154.86 763.947,1158.11 776.987,1159.81 C776.625,1160.48 775.868,1160.28 775.328,1160.56 C775.708,1160.55 776.083,1160.47 776.467,1160.47 C779.452,1160.49 782.441,1160.56 785.423,1160.45 C787.1,1160.39 788.585,1160.7 789.945,1161.66 C790.296,1162.43 790.646,1163.21 790.997,1163.99 C790.75,1164.2 790.503,1164.42 790.258,1164.64 C788.38,1165.58 786.35,1165.36 784.365,1165.36 C771.701,1165.39 759.037,1165.41 746.374,1165.35 C744.103,1165.34 741.647,1165.86 739.752,1163.94" fill="#EAE0CF"/>
    <path d="M713.714,960.985 C713.031,966.204 712.269,971.415 711.701,976.647 C711.439,979.062 710.434,978.718 708.79,977.949 C703.577,975.511 698.308,973.189 693.061,970.822 C690.834,969.605 688.607,968.387 686.38,967.17 C687.284,965.566 688.726,964.799 690.425,964.167 C695.686,962.209 701.021,960.367 706.065,957.935 C710.132,955.973 712.893,955.593 713.714,960.985" fill="#E9DFCE"/>
    <path d="M790.997,1163.99 C791.236,1164.51 791.475,1165.03 791.714,1165.55 C790.65,1167.21 788.98,1166.41 787.622,1166.41 C732.943,1166.46 678.264,1166.45 623.586,1166.43 C622.297,1166.43 620.908,1166.82 619.748,1165.86 C619.833,1165.48 619.917,1165.1 620.002,1164.73 C621.96,1164.08 623.969,1164.5 625.947,1164.5 C679.178,1164.47 732.41,1164.48 785.642,1164.46 C787.261,1164.45 788.975,1164.95 790.501,1163.93 C790.68,1163.82 790.845,1163.84 790.997,1163.99" fill="#8A8179"/>
    <path d="M790.501,1163.93 C789.845,1165.85 788.236,1164.87 787.135,1164.87 C732.416,1164.95 677.696,1164.96 622.977,1164.97 C621.985,1164.97 620.994,1164.81 620.002,1164.73 C620.249,1164.14 620.496,1163.55 620.743,1162.96 C622.542,1164.07 624.542,1163.97 626.542,1163.97 C664.279,1163.95 702.015,1163.95 739.752,1163.94 C756.669,1163.94 773.585,1163.93 790.501,1163.93" fill="#FDFBEB"/>
    <path d="M619.748,1165.86 C676.422,1165.89 733.096,1165.92 789.77,1165.94 C790.418,1165.94 791.066,1165.69 791.714,1165.55 C790.736,1167.56 788.868,1166.94 787.305,1166.94 C732.824,1166.97 678.342,1166.97 623.861,1166.95 C622.424,1166.95 620.803,1167.4 619.748,1165.86" fill="#030000"/>
    <path d="M535.42,1166.83 C514.979,1166.83 494.537,1166.83 474.096,1166.83 C474.095,1166.68 474.094,1166.52 474.093,1166.37 C494.607,1166.37 515.122,1166.37 535.636,1166.37 C535.564,1166.52 535.492,1166.68 535.42,1166.83" fill="#110100"/>
    <path d="M396.75,1115.98 C396.819,1128.21 396.888,1140.43 396.957,1152.66 C396.957,1156.74 396.957,1160.81 396.957,1164.89 C396.582,1164.88 396.208,1164.88 395.833,1164.87 C395.833,1149.14 395.823,1133.4 395.871,1117.67 C395.873,1117.11 396.444,1116.54 396.75,1115.98" fill="#040202"/>
    <path d="M265.803,387.068 C267.389,388.549 266.711,390.473 266.72,392.21 C266.772,402.428 266.71,412.646 266.774,422.864 C266.785,424.604 266.187,426.527 267.665,428.046 C267.502,428.633 268.626,430.498 266.846,429.445 C265.455,428.623 264.727,426.678 263.705,425.232 C265.642,424.413 265.853,422.895 265.837,420.957 C265.744,409.661 265.798,398.365 265.803,387.068" fill="#0D0403"/>
    <path d="M429.946,633.97 C440.091,636.704 450.292,639.154 460.784,640.161 C461.704,641.649 463.677,640.402 465.311,642.243 C452.042,640.919 439.808,638.027 427.631,634.26 C428.403,634.163 429.175,634.067 429.946,633.97" fill="#2B1B18"/>
    <path d="M440.673,1166.72 C426.814,1166.72 412.955,1166.72 399.096,1166.72 C399.094,1166.62 399.093,1166.51 399.091,1166.4 C412.95,1166.4 426.809,1166.4 440.668,1166.4 C440.67,1166.51 440.672,1166.62 440.673,1166.72" fill="#030000"/>
    <path d="M553.077,1166.16 C563.189,1166.16 573.301,1166.16 583.412,1166.16 C583.414,1166.31 583.417,1166.47 583.419,1166.62 C573.245,1166.62 563.071,1166.62 552.896,1166.62 C552.957,1166.47 553.017,1166.31 553.077,1166.16" fill="#110100"/>
    <path d="M789.945,1161.66 C784.637,1160.39 779.198,1161.26 773.696,1160.81 C774.667,1159.57 776.023,1160.39 776.987,1159.81 C780.434,1159.77 783.881,1159.77 787.327,1159.68 C788.798,1159.64 789.981,1159.79 789.945,1161.66" fill="#FDFBEB"/>
    <path d="M451.569,644.127 C450.961,644.111 450.353,644.096 449.744,644.081 C454.287,641.632 459.035,643.883 463.638,642.808 C463.652,643.248 463.667,643.687 463.682,644.127 C459.644,644.127 455.607,644.127 451.569,644.127" fill="#2B1B18"/>
    <path d="M587.741,1049.01 C587.445,1053.09 587.15,1057.17 586.855,1061.26 C586.866,1057.1 586.878,1052.94 586.889,1048.79 C587.193,1048.78 587.477,1048.86 587.741,1049.01" fill="#F0F5F8"/>
    <path d="M580.845,430.101 C571.868,430.089 563.506,428.069 555.986,422.879 C546.034,416.01 544.925,403.924 553.229,395.005 C561.377,386.253 571.655,382.752 583.124,380.913 C594.501,379.09 604.828,381.224 614.744,386.566 C625.685,392.461 627.779,406.309 619.096,415.212 C609.017,425.546 597.396,430.057 580.845,430.101" fill="#F9D1D0"/>
    <path d="M314.395,421.032 C304.082,421.539 295.588,418.204 287.907,412.523 C281.607,407.863 278.803,400.306 280.802,394.355 C282.263,390.006 285.552,387.679 289.472,386.033 C304.503,379.723 323.839,385.304 333.639,397.42 C339.709,404.924 336.846,415.096 327.465,419.015 C323.082,420.845 318.534,421.52 314.395,421.032" fill="#F9D1D0"/>
    <path d="M396.665,533.251 C395.274,531.009 392.846,530.823 390.635,530.252 C377.521,526.863 364.91,522.282 353.19,515.33 C349.32,513.035 348.129,511.059 350.751,506.758 C356.099,497.981 360.867,488.85 365.873,479.865 C366.292,480.066 366.71,480.267 367.128,480.468 C363.634,488.446 360.181,496.441 356.633,504.394 C353.814,510.715 353.719,510.777 360.101,514.013 C381.697,524.964 404.956,529.739 428.806,531.953 C475.253,536.262 520.897,530.458 566.179,520.524 C567.155,520.31 568.138,520.123 569.107,519.882 C570.396,519.562 571.774,518.966 572.801,520.269 C573.901,521.665 572.676,522.769 572.021,523.832 C557.418,547.504 538.01,565.908 512.713,577.839 C509.761,577.948 509.74,576.332 510.578,574.203 C514.175,570.344 519.302,568.839 523.439,565.807 C526.248,563.747 529.306,562.032 531.917,559.685 C543.706,550.37 554.265,539.865 563.884,527.196 C555.19,528.404 547.491,530.365 539.682,531.677 C520.142,534.961 500.542,537.391 480.731,538.662 C453.82,540.389 427.206,539.159 400.76,534.036 C399.359,533.988 398.024,533.556 396.665,533.251" fill="#2A1B17"/>
    <path d="M366.917,339.218 C369.868,345.326 367.966,360.375 363.643,365.271 C361.121,368.127 358.349,368.507 355.328,366.121 C353.198,364.438 351.683,362.247 350.55,359.809 C345.04,347.961 343.65,335.617 346.184,322.818 C346.345,322.005 346.788,321.228 346.844,320.417 C347.049,317.456 351.071,315.709 349.901,312.704 C348.854,310.016 346.596,307.799 344.52,304.88 C356.808,312.002 366.082,320.622 367.512,335.14 C367.609,336.12 367.824,337.135 366.918,337.905 C365.58,337.462 365.054,336.066 363.944,335.362 C361.802,334.006 359.818,334.27 358.228,336.214 C356.777,337.988 356.879,339.952 358.374,341.626 C360.096,343.554 362.127,343.384 364.143,341.987 C365.233,341.232 365.651,339.8 366.917,339.218" fill="#2F201B"/>
    <path d="M521.782,334.019 C522.386,334.043 523.292,331.585 523.477,333.873 C524.04,340.863 523.899,347.871 521.266,354.538 C520.083,357.531 518.558,360.535 514.896,360.855 C511.486,361.152 509.395,358.676 507.754,356.139 C501.732,346.828 500.21,336.351 500.414,325.556 C500.527,319.551 501.108,313.517 504.975,308.494 C506.036,307.115 505.157,306.428 504.502,305.525 C503.012,303.469 501.519,301.416 499.978,299.294 C501.815,298.636 502.565,299.998 503.533,300.783 C506.352,303.07 509.235,305.173 512.383,307.079 C518.354,310.694 520.056,317.315 521.619,323.622 C522.103,325.573 524.174,327.799 521.865,329.975 C520.703,329.682 519.944,328.706 518.902,328.217 C516.653,327.161 514.69,327.568 513.201,329.565 C511.981,331.201 511.971,332.979 513.205,334.614 C514.706,336.602 516.66,337.023 518.904,335.921 C519.942,335.411 520.664,334.413 521.782,334.019" fill="#2F201B"/>
    <path d="M510.436,574.876 C510.895,576.094 511.236,577.403 512.713,577.839 C499.016,584.661 484.431,587.92 469.264,589.486 C456.422,590.811 445.279,587.498 435.189,579.744 C420.712,568.619 409.883,554.34 400.081,539.191 C398.853,537.292 396.988,535.692 396.665,533.251 C397.63,531.818 398.795,533.36 399.835,533.039 C401.955,533.933 403.091,535.783 404.251,537.601 C410.862,547.966 418.399,557.666 426.873,566.511 C432.443,572.326 438.472,577.901 446.079,581.232 C454.819,586.527 464.344,585.277 473.707,584.25 C484.309,583.087 494.497,580.116 504.298,575.853 C506.225,575.016 508.168,573.788 510.436,574.876" fill="#170C0A"/>
    <path d="M796.546,352.001 C796.271,353.192 795.442,353.856 794.162,354.046 C779.726,356.197 771.954,366.296 765.603,378.054 C764.5,380.096 763.551,382.229 762.636,384.364 C759.987,390.547 760.008,390.556 766.263,393.093 C772.808,395.749 776.119,400.716 775.772,407.36 C775.448,413.559 769.858,421.467 764.797,422.943 C763.56,423.304 762.467,423.319 761.792,422.048 C761.118,420.778 761.673,419.842 762.756,419.1 C763.988,418.256 765.308,417.506 766.415,416.519 C770.265,413.088 772.462,408.931 770.995,403.665 C769.589,398.62 765.416,396.936 760.814,396.097 C754.199,394.891 754.176,394.941 756.401,388.355 C760.063,377.516 765.195,367.534 773.556,359.502 C778.967,354.304 785.278,350.788 792.829,349.847 C795.238,349.547 796.614,350.406 796.546,352.001" fill="#2A1D18"/>
    <path d="M362.936,241.637 C359.391,238.61 356.807,236.072 353.9,233.985 C345.657,228.068 338.635,229.011 332.03,236.773 C327.408,242.204 325.089,248.795 322.881,255.425 C322.028,257.984 321.193,260.549 319.74,262.895 C320.597,250.456 321.276,237.899 330.817,228.362 C339.878,219.305 349.955,220.32 357.472,230.718 C359.692,233.791 361.243,237.181 362.936,241.637" fill="#2E201B"/>
    <path d="M397.938,397.576 C395.624,398.618 393.879,397.664 392.109,397.455 C384.794,396.587 382.077,398.552 380.656,405.852 C379.134,413.674 381.422,420.654 385.393,427.256 C385.992,428.254 386.687,429.193 387.309,430.178 C387.941,431.177 387.717,432.098 386.878,432.842 C385.812,433.787 384.861,433.478 383.801,432.637 C375.906,426.377 373.175,405.041 379.28,397.189 C380.479,395.648 382.046,394.723 383.908,394.5 C388.806,393.913 393.299,395.197 397.938,397.576" fill="#2C1E1A"/>
    <path d="M526.755,832.857 C527.022,832.666 527.269,832.343 527.557,832.301 C540.214,830.461 552.917,829.37 565.725,830.007 C567.901,830.115 569.947,830.588 571.735,831.903 C569.706,834.069 573.092,832.926 572.971,833.927 C560.166,833.958 547.361,835.011 534.556,833.935 C532.129,832.324 529.092,835.124 526.755,832.857" fill="#2F201B"/>
    <path d="M634.831,607.073 C636.38,608.595 635.706,610.539 635.712,612.292 C635.763,629.278 635.733,646.264 635.752,663.25 C635.755,666.154 635.882,669.057 635.952,671.961 C634.55,670.882 633.92,669.505 633.923,667.69 C633.957,648 633.945,628.31 633.941,608.62 C633.941,607.92 634.096,607.337 634.831,607.073" fill="#110301"/>
    <path d="M521.782,334.019 C520.746,337.267 518.383,338.337 515.288,337.558 C512.642,336.893 511.029,334.884 510.922,332.189 C510.805,329.229 512.514,327.083 515.324,326.356 C518.423,325.554 520.77,326.803 521.864,329.974 C521.837,331.323 521.81,332.671 521.782,334.019" fill="#FAFAFA"/>
    <path d="M366.917,339.218 C366.507,343.124 364.14,344.831 360.456,344.361 C357.468,343.98 355.73,341.854 355.631,338.862 C355.531,335.84 357.234,333.721 360.156,333.112 C363.927,332.326 366.063,334.328 366.918,337.904 C366.918,338.343 366.917,338.781 366.917,339.218" fill="#FDFDFD"/>
    <path d="M776.206,423.205 C780.62,423.219 784.494,427.165 784.434,431.584 C784.372,436.141 780.706,439.514 775.914,439.42 C771.383,439.332 768.021,435.99 767.986,431.541 C767.95,427.024 771.73,423.191 776.206,423.205" fill="#241E1D"/>
    <path d="M707.561,485.353 C707.561,478.267 707.561,471.181 707.561,464.094 C707.905,464.096 708.248,464.099 708.592,464.101 C708.592,477.342 708.599,490.583 708.557,503.824 C708.556,504.229 708.043,504.632 707.769,505.036 C707.7,498.475 707.63,491.914 707.561,485.353" fill="#060201"/>
    <path d="M593.921,803.711 C593.921,810.134 593.921,816.557 593.921,822.98 C593.503,822.974 593.086,822.968 592.668,822.962 C593.443,812.657 591.506,802.309 593.705,792.026 C593.976,795.917 594.414,799.806 593.921,803.711" fill="#060201"/>
    <path d="M621.509,717.948 C621.549,718.882 621.074,719.566 620.231,719.819 C619.048,720.174 618.295,719.446 618.055,718.403 C617.849,717.505 618.446,716.773 619.3,716.525 C620.474,716.184 621.136,716.882 621.509,717.948" fill="#91999D"/>
    <path d="M606.738,730.077 C607.818,730.243 608.557,730.814 608.432,731.956 C608.315,733.028 607.56,733.707 606.463,733.561 C605.645,733.453 605.014,732.834 604.984,731.932 C604.946,730.787 605.637,730.221 606.738,730.077" fill="#979C9F"/>
    <path d="M628.174,710.838 C627.294,710.649 626.729,710.139 626.722,709.219 C626.712,708.073 627.401,707.403 628.487,707.408 C629.392,707.411 629.901,708.106 629.92,709.005 C629.944,710.149 629.314,710.757 628.174,710.838" fill="#969C9F"/>
    <path d="M597.693,738.963 C598.954,739.087 599.608,739.635 599.599,740.504 C599.589,741.613 598.822,742.219 597.695,742.175 C596.786,742.138 596.099,741.594 596.121,740.699 C596.148,739.594 596.954,739.069 597.693,738.963" fill="#949B9F"/>
    <path d="M624.091,712.038 C625.086,712.089 625.75,712.639 625.678,713.813 C625.623,714.707 625.06,715.327 624.175,715.337 C623.062,715.349 622.37,714.64 622.4,713.539 C622.424,712.672 623.043,712.142 624.091,712.038" fill="#828E93"/>
    <path d="M612.763,727.304 C612.711,728.333 612.165,729.034 610.953,728.947 C610.051,728.882 609.388,728.319 609.383,727.41 C609.377,726.278 610.117,725.562 611.232,725.579 C612.125,725.593 612.645,726.258 612.763,727.304" fill="#8E969B"/>
    <path d="M615.628,724.505 C614.485,724.491 613.918,723.887 613.794,723.028 C613.631,721.89 614.175,721.108 615.408,721.054 C616.361,721.012 617.074,721.607 617.175,722.45 C617.309,723.564 616.555,724.241 615.628,724.505" fill="#979C9F"/>
    <path d="M632.413,702.933 C633.319,702.947 634.06,703.363 634.151,704.261 C634.267,705.407 633.541,706.049 632.403,706.03 C631.457,706.015 630.881,705.345 630.878,704.483 C630.874,703.614 631.455,703.016 632.413,702.933" fill="#869095"/>
    <path d="M601.923,734.511 C603.039,734.424 603.615,735.022 603.819,735.861 C604.033,736.739 603.687,737.56 602.75,737.818 C601.546,738.149 600.837,737.51 600.698,736.341 C600.583,735.384 601.211,734.838 601.923,734.511" fill="#949B9E"/>
    <path d="M733.852,839.108 C733.368,843.472 732.884,847.836 732.4,852.2 C731.905,852.155 731.41,852.11 730.916,852.065 C730.692,847.35 732.125,842.748 732.878,838.1 C733.78,837.878 734.252,838.071 733.852,839.108" fill="#675D59"/>
    <path d="M733.852,839.108 C733.527,838.772 733.203,838.436 732.878,838.1 C732.336,835.579 733.836,833.456 734.433,831.108 C734.45,833.799 735.297,836.509 733.852,839.108" fill="#99928A"/>
    <path d="M507.067,910.136 C504.816,909.881 502.592,909.545 500.766,908.022 C512.298,905.163 523.796,902.105 535.889,902.316 C526.478,905.684 516.851,908.192 507.067,910.136" fill="#281D1A"/>
    <path d="M549.772,835.885 C554.096,834.464 558.417,834.432 562.735,835.908 C558.414,835.9 554.093,835.892 549.772,835.885" fill="#2F201B"/>
    <path d="M458.682,835.032 C457.716,841.051 456.278,847.041 455.91,853.096 C455.498,859.87 453.971,866.592 454.71,873.431 C453.522,877.217 454.951,881.193 453.87,884.986 C451.723,914.718 452.197,944.486 453.118,974.232 C455.055,1036.77 460.46,1099.06 467.933,1161.17 C468.031,1161.98 468.315,1162.77 468.512,1163.57 C463.984,1165.95 459.134,1164.45 454.45,1164.61 C446.417,1164.89 446.39,1164.69 444.425,1157.11 C426.874,1089.4 416.054,1020.58 410.449,950.896 C408.058,921.179 406.592,891.42 406.365,861.604 C406.355,860.29 406.102,858.977 405.962,857.664 C404.847,851.896 404.841,846.127 405.965,840.359 C406.929,829.955 408.003,819.558 408.796,809.14 C409.077,805.45 410.354,804.425 414.063,805.134 C421.237,806.506 428.511,807.341 435.729,808.493 C438.82,808.987 441.907,809.892 444.921,806.786 C444.921,814.517 445.047,822.25 444.866,829.976 C444.779,833.684 446.076,835.021 449.837,834.751 C452.75,834.542 455.772,833.931 458.682,835.032" fill="#F6EBD9"/>
    <path d="M540.186,828.955 C527.89,828.275 515.603,829.092 503.313,829.22 C486.663,829.394 470.013,829.696 453.372,830.242 C449.884,830.356 449.242,829.307 449.193,826.135 C448.845,803.328 448.406,780.52 447.756,757.72 C447.648,753.919 448.738,753.056 452.424,752.996 C496.542,752.275 540.658,751.405 584.771,750.447 C588.079,750.375 588.921,751.276 588.964,754.577 C589.263,777.386 589.7,800.195 590.354,822.997 C590.464,826.831 589.294,827.846 585.699,827.722 C581.389,827.573 577.062,827.956 572.742,828.109 C563.86,828.963 554.955,828.249 546.065,828.501 C544.101,828.556 542.096,828.171 540.186,828.955" fill="#FEFEFE"/>
    <path d="M501.757,747.899 C500.593,747.928 499.43,747.971 498.266,747.982 C485.375,748.093 485.247,748.149 480.041,736.548 C472.365,719.445 468.081,701.479 466.698,682.778 C466.41,678.882 467.856,678.054 471.456,678.02 C496.876,677.781 522.294,677.344 547.712,676.97 C551.141,676.015 554.64,676.644 558.101,676.578 C562.476,676.494 563.148,677.534 561.061,681.527 C558.288,686.833 555.661,692.23 552.393,697.267 C540.213,716.041 524.931,731.888 507.11,745.355 C505.473,746.592 503.641,747.263 501.757,747.899" fill="#486172"/>
    <path d="M501.757,747.899 C520.846,733.901 537.631,717.636 550.555,697.677 C554.146,692.132 557.224,686.249 560.404,680.448 C561.606,678.255 561.343,676.779 558.162,676.975 C554.692,677.189 551.197,676.99 547.712,676.97 C553.383,675.14 559.197,676.286 564.939,676.268 C567.344,676.261 566.76,678.624 566.793,680.178 C567.182,698.342 563.352,715.768 556.865,732.581 C551.274,747.072 550.992,746.875 535.584,747.063 C524.307,747.2 513.032,747.611 501.757,747.899" fill="#344C5B"/>
    <path d="M542.451,1020.86 C531.48,1020.98 520.506,1021 509.538,1021.26 C506.763,1021.33 505.292,1021 505.212,1017.71 C504.91,1005.24 504.41,992.781 503.861,980.324 C503.75,977.822 504.637,977.248 506.999,977.33 C516.833,977.67 526.462,979.666 536.205,980.714 C538.458,980.956 538.665,982.393 539.045,984.087 C540.171,989.105 540.932,994.223 542.896,999.026 C543.191,1006.31 544.025,1013.61 542.451,1020.86" fill="#A2A9AE"/>
    <path d="M466.277,710.097 C468.88,719.619 471.795,728.039 474.935,736.399 C476.302,740.04 474.107,743.851 473.174,747.487 C472.799,748.952 470.855,748.365 469.578,748.397 C462.589,748.576 455.596,748.898 448.61,748.789 C444.841,748.73 443.263,749.636 443.4,753.815 C443.909,769.289 444.053,784.776 444.364,800.257 C444.396,801.897 445.136,804.037 443.257,804.717 C441.218,805.456 440.766,802.963 439.831,801.801 C434.926,795.704 430.256,789.418 425.305,783.36 C423.616,781.293 423.249,779.771 424.593,777.241 C432.396,762.549 439.779,747.631 447.696,733.002 C452.31,724.476 459.974,718.32 466.277,710.097" fill="#F6EBD9"/>
    <path d="M435.88,804.039 C427.788,802.872 420.716,801.864 413.648,800.824 C412.027,800.586 410.27,800.644 410.984,797.926 C414.813,783.348 420.701,769.711 429.809,757.516 C426.969,763.103 424.465,768.896 421.191,774.216 C418.228,779.031 418.386,782.61 422.36,786.876 C427.092,791.955 431.02,797.783 435.88,804.039" fill="#F6ECDA"/>
    <path d="M462.5,834.904 C466.744,833.849 470.679,834.237 474.564,834.14 C480.047,834.003 485.532,833.956 491.016,833.842 C492.91,833.803 494.601,833.617 494.691,836.457 C494.768,838.874 493.802,839.561 491.629,839.912 C485.75,840.861 479.676,840.999 474.186,843.724 C473.331,844.149 472.572,844.057 471.893,843.482 C468.779,840.848 465.11,838.804 462.5,834.904" fill="#F9E4DB"/>
    <path d="M526.755,832.858 C529.315,833.511 532.154,832.143 534.556,833.935 C524.016,835.319 513.481,836.738 502.933,838.05 C501.415,838.239 499.136,839.74 498.848,836.42 C498.554,833.029 501.015,833.774 502.861,833.703 C510.825,833.394 518.79,833.135 526.755,832.858" fill="#A4ABB0"/>
    <path d="M405.965,840.359 C405.964,846.128 405.963,851.896 405.962,857.664 C405.962,866.749 405.962,875.834 405.962,884.92 C405.653,884.917 405.344,884.915 405.035,884.913 C405.035,866.297 405.035,847.68 405.035,829.064 C405.345,829.06 405.655,829.056 405.965,829.052 C405.965,832.821 405.965,836.59 405.965,840.359" fill="#110A08"/>
    <path d="M540.186,828.955 C551.014,827.732 561.88,828.015 572.742,828.109 C569.828,829.928 566.611,828.888 563.552,828.949 C555.767,829.105 547.975,828.972 540.186,828.955" fill="#2F201B"/>
    <path d="M542.451,1020.86 C543.402,1013.6 542.584,1006.3 542.896,999.026 C544.833,1006.28 543.246,1013.67 543.761,1020.98 C543.761,1020.98 543.752,1020.99 543.751,1020.99 C543.318,1020.95 542.885,1020.9 542.451,1020.86" fill="#2F201B"/>
    <path d="M516.806,1084.87 C518.444,1087 517.43,1089.51 517.826,1091.82 C517.549,1092.38 517.348,1093.33 516.978,1093.41 C516.144,1093.57 515.96,1092.77 516.224,1092.12 C517.185,1089.76 516.547,1087.28 516.806,1084.87" fill="#2F201B"/>
    <path d="M695.713,776.792 C682.17,785.509 668.614,794.206 655.103,802.972 C653.638,803.922 652.629,803.219 651.464,802.604 C643.376,798.331 635.35,793.932 627.158,789.868 C624.424,788.511 624.87,786.86 625.31,784.605 C632.983,745.37 640.301,706.074 645.184,666.37 C645.474,664.012 645.672,661.643 645.407,659.21 C642.143,662.623 643.082,667.247 641.477,671.318 C639.258,670.064 638.259,668.385 638.314,665.818 C638.435,660.155 638.451,654.485 638.309,648.823 C638.243,646.194 639.095,645.492 641.479,646.527 C643.611,647.453 645.991,648.004 647.863,649.297 C659.688,657.463 670.914,666.396 679.941,677.674 C684.938,683.915 686.715,690.911 683.852,699.039 C672.503,731.254 656.563,760.479 630.442,783.297 C630.239,783.474 630.225,783.869 629.975,784.581 C652.509,786.244 674.268,783.407 695.373,775.359 C695.486,775.836 695.6,776.314 695.713,776.792" fill="#F6EBD9"/>
    <path d="M718.014,763.182 C714.013,775.132 709.678,786.019 704.301,796.49 C703.56,797.933 702.569,798.721 700.845,798.871 C689.426,799.863 678.016,800.951 666.584,802.009 C666.376,799.954 668.109,799.835 669.096,799.192 C678.293,793.2 687.509,787.235 696.797,781.384 C698.943,780.032 700.605,778.715 699.881,775.881 C699.44,774.155 700.131,773.134 701.774,772.41 C707.217,770.013 712.268,766.881 718.014,763.182" fill="#F6EBD9"/>
    <path d="M636.966,667.729 C636.966,660.841 636.966,653.953 636.966,647.065 C637.11,647.065 637.254,647.064 637.398,647.064 C637.398,653.965 637.398,660.866 637.398,667.767 C637.254,667.754 637.11,667.741 636.966,667.729" fill="#030000"/>
    <path d="M586.618,1070.98 C586.7,1077.76 586.859,1084.55 585.864,1091.29 C585.962,1084.51 584.778,1077.69 586.618,1070.98" fill="#F0F5F8"/>
    <path d="M456.827,901.574 C457.211,896.392 455.66,891.103 457.693,886.012 C457.682,891.215 457.941,896.433 456.827,901.574" fill="#2B1B18"/>
    <path d="M457.824,881.571 C458.172,878.059 456.768,874.406 458.67,871.018 C458.7,874.561 458.793,878.109 457.824,881.571" fill="#2B1B18"/>
    <path d="M455.019,903.716 C455.019,899.487 455.019,895.258 455.019,891.029 C455.184,891.029 455.35,891.029 455.515,891.029 C455.515,895.269 455.515,899.51 455.515,903.75 C455.35,903.739 455.184,903.727 455.019,903.716" fill="#2B1B18"/>
    <path d="M453.87,884.986 C453.689,881.101 453.759,877.235 454.71,873.432 C454.396,877.28 455.727,881.249 453.87,884.986" fill="#2B1B18"/>
    <path d="M444.835,581.871 C436.541,578.011 430.187,571.695 424.008,565.215 C414.693,555.447 407.081,544.375 399.835,533.039 C407.525,534.051 415.199,535.196 422.906,536.053 C463.53,540.566 503.717,536.755 543.708,529.518 C551.224,528.157 558.698,526.564 567.345,524.85 C556.823,539.131 545.669,551.369 531.892,561.099 C529.13,561.438 526.733,560.102 524.184,559.442 C502.53,553.838 481.533,554.413 461.718,566.112 C456.627,569.117 452.562,573.19 449.11,577.931 C447.948,579.528 446.996,581.356 444.835,581.871" fill="#F7C2D8"/>
    <path d="M444.835,581.871 C456.262,562.858 474.279,556.193 495.208,554.982 C507.898,554.248 520.29,555.303 531.891,561.1 C525.416,566.745 517.676,570.421 510.436,574.876 C495.268,581.596 479.582,586.17 462.85,586.564 C456.369,586.717 450.318,585.44 444.835,581.871" fill="#FEFEFE"/>
    <path d="M782.266,431.272 C781.94,434.919 780.043,437.339 776.373,437.464 C772.685,437.59 770.326,435.271 770.211,431.656 C770.097,428.028 772.381,425.572 776.009,425.448 C779.65,425.324 781.71,427.665 782.266,431.272" fill="#FBFBFB"/>
  </g>
</svg>
